<?xml version="1.0" encoding="UTF-8" standalone="no"?>
<!-- Created with Inkscape (http://www.inkscape.org/) -->

<svg
   xmlns:dc="http://purl.org/dc/elements/1.1/"
   xmlns:cc="http://creativecommons.org/ns#"
   xmlns:rdf="http://www.w3.org/1999/02/22-rdf-syntax-ns#"
   xmlns:svg="http://www.w3.org/2000/svg"
   xmlns="http://www.w3.org/2000/svg"
   version="1.1"
   width="212.90199"
   height="23.75"
   viewBox="0 0 212.902 23.75"
   id="Layer_1"
   xml:space="preserve"><metadata
     id="metadata55"><rdf:RDF><cc:Work
         rdf:about=""><dc:format>image/svg+xml</dc:format><dc:type
           rdf:resource="http://purl.org/dc/dcmitype/StillImage" /><dc:title></dc:title></cc:Work></rdf:RDF></metadata><defs
     id="defs53" /><g
     id="g3"
     style="display:none"><polygon
       points="61.875,13.165 19.083,13.165 0,43.814 42.793,43.814 "
       id="polygon5"
       style="fill:#f47721;display:inline" /><circle
       cx="30.938"
       cy="28.488001"
       r="5.494"
       id="circle7"
       style="fill:#ffffff;display:inline" /></g><g
     transform="translate(-0.69510914,0.99301306)"
     id="g9"><polygon
       points="15.209,0.636 1.057,23.364 32.79,23.364 46.942,0.636 "
       id="polygon11"
       style="fill:#f47721" /><circle
       cx="23.999001"
       cy="11.999"
       r="4.073"
       id="circle13"
       style="fill:#ffffff" /></g><g
     id="g15"><path
       d="m 46.951,1.657 h 3.783 c 2.522,0 4.229,0.097 5.123,0.292 0.894,0.195 1.621,0.692 2.184,1.492 0.563,0.8 0.844,2.076 0.844,3.828 0,1.6 -0.199,2.675 -0.597,3.225 -0.398,0.55 -1.181,0.88 -2.349,0.99 1.058,0.263 1.769,0.613 2.133,1.054 0.364,0.439 0.59,0.844 0.679,1.213 0.089,0.367 0.133,1.381 0.133,3.039 v 5.422 H 53.92 v -6.83 c 0,-1.102 -0.087,-1.781 -0.26,-2.045 -0.173,-0.262 -0.628,-0.393 -1.365,-0.393 v 9.268 H 46.95 V 1.657 z m 5.345,3.516 v 4.57 c 0.601,0 1.022,-0.082 1.263,-0.248 0.241,-0.164 0.362,-0.7 0.362,-1.605 V 6.76 C 53.921,6.109 53.805,5.681 53.572,5.478 53.339,5.275 52.913,5.173 52.296,5.173 z"
       id="path17"
       style="fill:#666666" /><path
       d="m 70.193,1.657 3.056,20.554 H 67.787 L 67.5,18.516 h -1.912 l -0.321,3.695 H 59.741 L 62.467,1.657 h 7.726 z M 67.36,14.873 C 67.089,12.545 66.818,9.667 66.546,6.24 c -0.544,3.936 -0.887,6.813 -1.026,8.633 h 1.84 z"
       id="path19"
       style="fill:#666666" /><path
       d="m 74.157,1.657 h 5.383 c 1.456,0 2.575,0.114 3.357,0.343 0.783,0.229 1.371,0.559 1.766,0.99 0.393,0.432 0.66,0.954 0.799,1.568 0.141,0.614 0.21,1.564 0.21,2.85 v 1.79 c 0,1.312 -0.136,2.269 -0.406,2.869 -0.271,0.601 -0.769,1.062 -1.491,1.384 -0.725,0.32 -1.67,0.482 -2.838,0.482 H 79.502 V 22.21 H 74.157 V 1.657 z m 5.345,3.516 v 5.23 c 0.152,0.009 0.283,0.013 0.394,0.013 0.491,0 0.832,-0.12 1.021,-0.362 0.191,-0.24 0.286,-0.742 0.286,-1.504 V 6.862 c 0,-0.702 -0.11,-1.159 -0.33,-1.371 -0.22,-0.212 -0.677,-0.318 -1.371,-0.318 z"
       id="path21"
       style="fill:#666666" /><path
       d="M 92.552,1.657 V 22.211 H 87.207 V 1.657 h 5.345 z"
       id="path23"
       style="fill:#666666" /><path
       d="m 94.698,1.657 h 3.999 c 2.581,0 4.327,0.119 5.237,0.355 0.909,0.237 1.602,0.626 2.075,1.168 0.473,0.542 0.771,1.145 0.889,1.809 0.118,0.665 0.178,1.971 0.178,3.917 v 7.198 c 0,1.846 -0.087,3.08 -0.261,3.701 -0.173,0.623 -0.476,1.109 -0.907,1.461 -0.432,0.35 -0.965,0.596 -1.6,0.736 -0.635,0.139 -1.591,0.209 -2.869,0.209 H 94.698 V 1.657 z m 5.345,3.516 v 13.52 c 0.771,0 1.244,-0.154 1.422,-0.463 0.178,-0.309 0.267,-1.148 0.267,-2.52 V 7.725 c 0,-0.931 -0.029,-1.527 -0.089,-1.79 -0.06,-0.263 -0.194,-0.455 -0.406,-0.578 -0.213,-0.122 -0.61,-0.184 -1.194,-0.184 z"
       id="path25"
       style="fill:#666666" /><path
       d="m 109.069,1.657 h 9.052 V 5.77 h -3.707 v 3.897 h 3.301 v 3.911 h -3.301 v 8.633 h -5.345 V 1.657 z"
       id="path27"
       style="fill:#f47721" /><path
       d="m 128.135,1.657 3.056,20.554 h -5.462 l -0.286,-3.695 h -1.912 l -0.321,3.695 h -5.526 l 2.727,-20.554 h 7.724 z m -2.833,13.216 c -0.271,-2.328 -0.542,-5.206 -0.814,-8.633 -0.544,3.936 -0.886,6.813 -1.025,8.633 h 1.839 z"
       id="path29"
       style="fill:#f47721" /><path
       d="m 144.578,10.607 h -5.345 V 7.035 c 0,-1.039 -0.057,-1.687 -0.172,-1.944 -0.113,-0.258 -0.365,-0.387 -0.755,-0.387 -0.44,0 -0.72,0.156 -0.838,0.47 -0.118,0.314 -0.178,0.99 -0.178,2.031 v 9.547 c 0,0.998 0.06,1.65 0.178,1.955 0.118,0.305 0.385,0.457 0.8,0.457 0.397,0 0.658,-0.152 0.781,-0.459 0.122,-0.305 0.184,-1.021 0.184,-2.15 v -2.584 h 5.345 v 0.801 c 0,2.129 -0.15,3.637 -0.45,4.527 -0.301,0.889 -0.965,1.67 -1.994,2.34 -1.027,0.668 -2.295,1.004 -3.802,1.004 -1.565,0 -2.856,-0.283 -3.872,-0.852 -1.016,-0.566 -1.688,-1.352 -2.019,-2.354 -0.33,-1.004 -0.495,-2.512 -0.495,-4.527 V 8.906 c 0,-1.481 0.051,-2.592 0.152,-3.332 0.102,-0.741 0.404,-1.454 0.908,-2.14 0.503,-0.686 1.201,-1.225 2.094,-1.619 0.894,-0.394 1.92,-0.59 3.079,-0.59 1.574,0 2.873,0.304 3.897,0.913 1.024,0.608 1.697,1.367 2.019,2.275 0.321,0.909 0.482,2.322 0.482,4.241 v 1.953 z"
       id="path31"
       style="fill:#f47721" /><path
       d="M 157.26,1.657 V 5.77 h -3.174 v 16.441 h -5.345 V 5.77 H 145.58 V 1.657 h 11.68 z"
       id="path33"
       style="fill:#f47721" /><path
       d="m 170.629,1.657 v 13.736 c 0,1.559 -0.051,2.652 -0.152,3.283 -0.102,0.629 -0.402,1.277 -0.901,1.941 -0.499,0.664 -1.157,1.168 -1.975,1.512 -0.816,0.342 -1.779,0.514 -2.888,0.514 -1.228,0 -2.311,-0.203 -3.25,-0.609 -0.939,-0.406 -1.642,-0.936 -2.107,-1.588 -0.466,-0.65 -0.74,-1.338 -0.825,-2.063 -0.085,-0.723 -0.127,-2.244 -0.127,-4.564 V 1.657 h 5.345 v 15.412 c 0,0.898 0.049,1.471 0.146,1.721 0.098,0.25 0.295,0.375 0.591,0.375 0.339,0 0.557,-0.139 0.653,-0.412 0.098,-0.275 0.146,-0.926 0.146,-1.949 V 1.657 h 5.344 z"
       id="path35"
       style="fill:#f47721" /><path
       d="m 172.698,1.657 h 3.783 c 2.522,0 4.229,0.097 5.123,0.292 0.893,0.195 1.62,0.692 2.184,1.492 0.563,0.8 0.844,2.076 0.844,3.828 0,1.6 -0.199,2.675 -0.597,3.225 -0.398,0.55 -1.181,0.88 -2.349,0.99 1.058,0.263 1.769,0.613 2.133,1.054 0.364,0.439 0.59,0.844 0.68,1.213 0.088,0.367 0.133,1.381 0.133,3.039 v 5.422 h -4.964 v -6.83 c 0,-1.102 -0.087,-1.781 -0.261,-2.045 -0.173,-0.262 -0.628,-0.393 -1.364,-0.393 v 9.268 h -5.345 V 1.657 z m 5.345,3.516 v 4.57 c 0.601,0 1.022,-0.082 1.263,-0.248 0.242,-0.164 0.362,-0.7 0.362,-1.605 V 6.76 c 0,-0.651 -0.116,-1.079 -0.349,-1.282 -0.233,-0.203 -0.658,-0.305 -1.276,-0.305 z"
       id="path37"
       style="fill:#f47721" /><path
       d="m 186.701,1.657 h 8.912 V 5.77 h -3.567 v 3.897 h 3.339 v 3.911 h -3.339 v 4.52 h 3.923 v 4.113 h -9.268 V 1.657 z"
       id="path39"
       style="fill:#f47721" /></g><rect
     width="151.01801"
     height="26.229"
     x="45.884998"
     y="1.645"
     id="rect41"
     style="fill:none" /><text
     transform="translate(45.8845,22.2109)"
     id="text43"
     style="display:none"><tspan
       x="0"
       y="0"
       id="tspan45"
       style="font-size:26px;fill:#ffffff;display:inline;font-family:Impact">rapid</tspan><tspan
       x="62.118"
       y="0"
       id="tspan47"
       style="font-size:26px;fill:#f47721;display:inline;font-family:Impact">fac</tspan><tspan
       x="100.064"
       y="0"
       id="tspan49"
       style="font-size:26px;fill:#f47721;display:inline;font-family:Impact">-</tspan></text>
</svg>
